Comme-Thin.ufo
<glyph name="question" format="1">
  <advance width="902"/>
  <unicode hex="003F"/>
  <outline>
    <contour>
      <point x="336" y="392" type="line"/>
      <point x="384" y="392" type="line"/>
      <point x="484" y="772"/>
      <point x="727" y="922"/>
      <point x="727" y="1219" type="curve" smooth="yes"/>
      <point x="727" y="1396"/>
      <point x="593" y="1514"/>
      <point x="405" y="1514" type="curve" smooth="yes"/>
      <point x="286" y="1514"/>
      <point x="185" y="1475"/>
      <point x="116" y="1427" type="curve"/>
      <point x="126" y="1338" type="line"/>
      <point x="164" y="1363"/>
      <point x="282" y="1428"/>
      <point x="391" y="1428" type="curve" smooth="yes"/>
      <point x="536" y="1428"/>
      <point x="626" y="1366"/>
      <point x="626" y="1211" type="curve" smooth="yes"/>
      <point x="626" y="942"/>
      <point x="336" y="629"/>
      <point x="336" y="399" type="curve" smooth="yes"/>
    </contour>
    <contour>
      <point x="365" y="-17" type="curve" smooth="yes"/>
      <point x="441" y="-17"/>
      <point x="458" y="30"/>
      <point x="458" y="71" type="curve" smooth="yes"/>
      <point x="458" y="109"/>
      <point x="441" y="157"/>
      <point x="365" y="157" type="curve" smooth="yes"/>
      <point x="291" y="157"/>
      <point x="277" y="109"/>
      <point x="277" y="71" type="curve" smooth="yes"/>
      <point x="277" y="33"/>
      <point x="290" y="-17"/>
    </contour>
  </outline>
</glyph>
<glyph name="C" format="1">
  <advance width="1367"/>
  <unicode hex="0043"/>
  <outline>
    <contour>
      <point x="820" y="1455" type="move" name="top"/>
    </contour>
    <contour>
      <point x="827" y="0" type="move" name="bot"/>
    </contour>
    <contour>
      <point x="148" y="728" type="curve" smooth="yes"/>
      <point x="148" y="268"/>
      <point x="399" y="-20"/>
      <point x="797" y="-20" type="curve" smooth="yes"/>
      <point x="1005" y="-20"/>
      <point x="1191" y="100"/>
      <point x="1269" y="294" type="curve"/>
      <point x="1209" y="318" type="line"/>
      <point x="1196" y="318" type="line"/>
      <point x="1127" y="153"/>
      <point x="972" y="49"/>
      <point x="797" y="49" type="curve" smooth="yes"/>
      <point x="455" y="49"/>
      <point x="241" y="310"/>
      <point x="241" y="728" type="curve" smooth="yes"/>
      <point x="241" y="1146"/>
      <point x="455" y="1407"/>
      <point x="797" y="1407" type="curve" smooth="yes"/>
      <point x="972" y="1407"/>
      <point x="1127" y="1303"/>
      <point x="1196" y="1138" type="curve"/>
      <point x="1210" y="1138" type="line"/>
      <point x="1269" y="1163" type="line"/>
      <point x="1191" y="1356"/>
      <point x="1005" y="1476"/>
      <point x="797" y="1476" type="curve" smooth="yes"/>
      <point x="399" y="1476"/>
      <point x="148" y="1188"/>
    </contour>
  </outline>
</glyph>
<glyph name="P" format="1">
  <advance width="1203"/>
  <unicode hex="0050"/>
  <outline>
    <contour>
      <point x="605" y="1455" type="move" name="top"/>
    </contour>
    <contour>
      <point x="314" y="799" type="curve"/>
      <point x="314" y="1387" type="line"/>
      <point x="403" y="1391"/>
      <point x="482" y="1394"/>
      <point x="551" y="1394" type="curve" smooth="yes"/>
      <point x="913" y="1394"/>
      <point x="1010" y="1326"/>
      <point x="1010" y="1115" type="curve" smooth="yes"/>
      <point x="1010" y="860"/>
      <point x="928" y="794"/>
      <point x="531" y="794" type="curve" smooth="yes"/>
      <point x="467" y="794"/>
      <point x="395" y="796"/>
    </contour>
    <contour>
      <point x="222" y="1454" type="curve"/>
      <point x="222" y="0" type="line"/>
      <point x="314" y="0" type="line"/>
      <point x="314" y="729" type="line"/>
      <point x="395" y="724"/>
      <point x="468" y="722"/>
      <point x="534" y="722" type="curve" smooth="yes"/>
      <point x="990" y="722"/>
      <point x="1102" y="837"/>
      <point x="1102" y="1112" type="curve" smooth="yes"/>
      <point x="1102" y="1365"/>
      <point x="983" y="1466"/>
      <point x="533" y="1466" type="curve" smooth="yes"/>
      <point x="443" y="1466"/>
      <point x="340" y="1462"/>
    </contour>
  </outline>
</glyph>
<glyph name="U" format="1">
  <advance width="1453"/>
  <unicode hex="0055"/>
  <outline>
    <contour>
      <point x="727" y="1455" type="move" name="top"/>
    </contour>
    <contour>
      <point x="726" y="0" type="move" name="bot"/>
    </contour>
    <contour>
      <point x="1186" y="1455" type="line"/>
      <point x="1186" y="534" type="line" smooth="yes"/>
      <point x="1186" y="222"/>
      <point x="1039" y="50"/>
      <point x="727" y="50" type="curve" smooth="yes"/>
      <point x="397" y="50"/>
      <point x="267" y="223"/>
      <point x="267" y="535" type="curve" smooth="yes"/>
      <point x="267" y="1455" type="line"/>
      <point x="174" y="1455" type="line"/>
      <point x="174" y="543" type="line" smooth="yes"/>
      <point x="174" y="224"/>
      <point x="325" y="-19"/>
      <point x="727" y="-19" type="curve" smooth="yes"/>
      <point x="1125" y="-19"/>
      <point x="1279" y="234"/>
      <point x="1279" y="539" type="curve" smooth="yes"/>
      <point x="1279" y="1455" type="line"/>
    </contour>
  </outline>
</glyph>
<glyph name="b" format="1">
  <advance width="1239"/>
  <unicode hex="0062"/>
  <outline>
    <contour>
      <point x="680" y="1082" type="move" name="top"/>
    </contour>
    <contour>
      <point x="650" y="-20" type="curve" smooth="yes"/>
      <point x="953" y="-20"/>
      <point x="1120" y="207"/>
      <point x="1120" y="533" type="curve" smooth="yes"/>
      <point x="1120" y="887"/>
      <point x="960" y="1102"/>
      <point x="661" y="1102" type="curve" smooth="yes"/>
      <point x="495" y="1102"/>
      <point x="359" y="1009"/>
      <point x="284" y="864" type="curve"/>
      <point x="284" y="1560" type="line"/>
      <point x="187" y="1540" type="line"/>
      <point x="187" y="0" type="line"/>
      <point x="254" y="0" type="line"/>
      <point x="264" y="185" type="line"/>
      <point x="326" y="79"/>
      <point x="444" y="-20"/>
    </contour>
    <contour>
      <point x="650" y="50" type="curve" smooth="yes"/>
      <point x="438" y="50"/>
      <point x="334" y="167"/>
      <point x="282" y="294" type="curve"/>
      <point x="282" y="586" type="line"/>
      <point x="280" y="850"/>
      <point x="442" y="1032"/>
      <point x="655" y="1032" type="curve" smooth="yes"/>
      <point x="935" y="1032"/>
      <point x="1022" y="804"/>
      <point x="1022" y="536" type="curve" smooth="yes"/>
      <point x="1022" y="267"/>
      <point x="915" y="50"/>
    </contour>
  </outline>
</glyph>
<glyph name="g" format="1">
  <advance width="1257"/>
  <unicode hex="0067"/>
  <outline>
    <contour>
      <point x="616" y="1082" type="move" name="top"/>
    </contour>
    <contour>
      <point x="574" y="-447" type="curve" smooth="yes"/>
      <point x="974" y="-447"/>
      <point x="1080" y="-243"/>
      <point x="1080" y="78" type="curve" smooth="yes"/>
      <point x="1080" y="1082" type="line"/>
      <point x="991" y="1082" type="line"/>
      <point x="982" y="902" type="line"/>
      <point x="919" y="1015"/>
      <point x="799" y="1102"/>
      <point x="615" y="1102" type="curve" smooth="yes"/>
      <point x="226" y="1102"/>
      <point x="120" y="785"/>
      <point x="120" y="536" type="curve" smooth="yes"/>
      <point x="120" y="307"/>
      <point x="243" y="-1"/>
      <point x="600" y="-1" type="curve" smooth="yes"/>
      <point x="807" y="0"/>
      <point x="925" y="103"/>
      <point x="984" y="207" type="curve"/>
      <point x="984" y="69" type="line" smooth="yes"/>
      <point x="984" y="-250"/>
      <point x="873" y="-373"/>
      <point x="560" y="-373" type="curve" smooth="yes"/>
      <point x="460" y="-373"/>
      <point x="343" y="-350"/>
      <point x="294" y="-331" type="curve"/>
      <point x="283" y="-331" type="line"/>
      <point x="282" y="-405" type="line"/>
      <point x="326" y="-419"/>
      <point x="444" y="-447"/>
    </contour>
    <contour>
      <point x="596" y="71" type="curve" smooth="yes"/>
      <point x="314" y="71"/>
      <point x="217" y="351"/>
      <point x="217" y="536" type="curve" smooth="yes"/>
      <point x="217" y="742"/>
      <point x="311" y="1032"/>
      <point x="598" y="1032" type="curve" smooth="yes"/>
      <point x="859" y="1032"/>
      <point x="947" y="856"/>
      <point x="984" y="765" type="curve"/>
      <point x="984" y="319" type="line"/>
      <point x="949" y="247"/>
      <point x="865" y="71"/>
    </contour>
  </outline>
</glyph>
<glyph name="n" format="1">
  <advance width="1164"/>
  <unicode hex="006E"/>
  <outline>
    <contour>
      <point x="643" y="1082" type="move" name="top"/>
    </contour>
    <contour>
      <point x="584" y="0" type="move" name="bot"/>
    </contour>
    <contour>
      <point x="187" y="0" type="line"/>
      <point x="285" y="0" type="line"/>
      <point x="285" y="670" type="line" smooth="yes"/>
      <point x="285" y="840"/>
      <point x="352" y="1032"/>
      <point x="641" y="1032" type="curve" smooth="yes"/>
      <point x="836" y="1032"/>
      <point x="893" y="906"/>
      <point x="892" y="711" type="curve"/>
      <point x="892" y="0" type="line"/>
      <point x="990" y="0" type="line"/>
      <point x="990" y="661" type="line" smooth="yes"/>
      <point x="990" y="966"/>
      <point x="885" y="1102"/>
      <point x="644" y="1102" type="curve" smooth="yes"/>
      <point x="450" y="1102"/>
      <point x="338" y="1019"/>
      <point x="281" y="898" type="curve"/>
      <point x="267" y="1082" type="line"/>
      <point x="187" y="1082" type="line"/>
    </contour>
  </outline>
</glyph>
<glyph name="y" format="1">
  <advance width="1070"/>
  <unicode hex="0079"/>
  <outline>
    <contour>
      <point x="564" y="1082" type="move" name="top"/>
    </contour>
    <contour>
      <point x="1013" y="1082" type="line"/>
      <point x="920" y="1082" type="line"/>
      <point x="572" y="162" type="line"/>
      <point x="172" y="1082" type="line"/>
      <point x="74" y="1082" type="line"/>
      <point x="529" y="50" type="line"/>
      <point x="363" y="-369" type="line"/>
      <point x="439" y="-401" type="line"/>
    </contour>
  </outline>
</glyph>
<glyph name="z" format="1">
  <advance width="896"/>
  <unicode hex="007A"/>
  <outline>
    <contour>
      <point x="476" y="1082" type="move" name="top"/>
    </contour>
    <contour>
      <point x="446" y="0" type="move" name="bot"/>
    </contour>
    <contour>
      <point x="142" y="1082" type="line"/>
      <point x="142" y="1019" type="line"/>
      <point x="702" y="1019" type="line"/>
      <point x="121" y="66" type="line"/>
      <point x="121" y="0" type="line"/>
      <point x="789" y="0" type="line"/>
      <point x="788" y="61" type="line"/>
      <point x="200" y="61" type="line"/>
      <point x="784" y="1018" type="line"/>
      <point x="784" y="1082" type="line"/>
    </contour>
  </outline>
</glyph>
<glyph name="registered" format="1">
  <advance width="1965"/>
  <unicode hex="00AE"/>
  <outline>
    <contour>
      <point x="674" y="319" type="line"/>
      <point x="760" y="319" type="line"/>
      <point x="760" y="800" type="line"/>
      <point x="1046" y="800" type="line"/>
      <point x="1048" y="793"/>
      <point x="1270" y="319"/>
      <point x="1270" y="319" type="curve"/>
      <point x="1364" y="319" type="line"/>
      <point x="1364" y="319"/>
      <point x="1125" y="826"/>
      <point x="1134" y="812" type="curve"/>
      <point x="1138" y="812" type="line" smooth="yes"/>
      <point x="1266" y="812"/>
      <point x="1336" y="911"/>
      <point x="1336" y="1052" type="curve" smooth="yes"/>
      <point x="1336" y="1210"/>
      <point x="1287" y="1292"/>
      <point x="1016" y="1292" type="curve" smooth="yes"/>
      <point x="674" y="1292" type="line"/>
    </contour>
    <contour>
      <point x="762" y="875" type="line"/>
      <point x="762" y="1218" type="line"/>
      <point x="1016" y="1218" type="line" smooth="yes"/>
      <point x="1197" y="1218"/>
      <point x="1257" y="1189"/>
      <point x="1257" y="1047" type="curve" smooth="yes"/>
      <point x="1257" y="939"/>
      <point x="1230" y="875"/>
      <point x="1073" y="875" type="curve" smooth="yes"/>
    </contour>
    <contour>
      <point x="980" y="15" type="curve" smooth="yes"/>
      <point x="642" y="15"/>
      <point x="262" y="235"/>
      <point x="262" y="763" type="curve" smooth="yes"/>
      <point x="262" y="1293"/>
      <point x="642" y="1513"/>
      <point x="980" y="1513" type="curve" smooth="yes"/>
      <point x="1318" y="1513"/>
      <point x="1703" y="1292"/>
      <point x="1703" y="763" type="curve" smooth="yes"/>
      <point x="1703" y="236"/>
      <point x="1318" y="15"/>
    </contour>
    <contour>
      <point x="980" y="-46" type="curve" smooth="yes"/>
      <point x="1363" y="-46"/>
      <point x="1788" y="195"/>
      <point x="1788" y="763" type="curve" smooth="yes"/>
      <point x="1788" y="1332"/>
      <point x="1363" y="1574"/>
      <point x="980" y="1574" type="curve" smooth="yes"/>
      <point x="597" y="1574"/>
      <point x="176" y="1332"/>
      <point x="176" y="763" type="curve" smooth="yes"/>
      <point x="176" y="195"/>
      <point x="596" y="-46"/>
    </contour>
  </outline>
</glyph>
<glyph name="macron" format="1">
  <advance width="1232"/>
  <unicode hex="00AF"/>
  <outline>
    <contour>
      <point x="616" y="1082" type="move" name="_top"/>
    </contour>
    <contour>
      <point x="355" y="1381" type="line"/>
      <point x="828" y="1381" type="line"/>
      <point x="828" y="1435" type="line"/>
      <point x="355" y="1435" type="line"/>
    </contour>
  </outline>
</glyph>
<glyph name="divide" format="1">
  <advance width="1032"/>
  <unicode hex="00F7"/>
  <outline>
    <contour>
      <point x="57" y="609" type="line"/>
      <point x="57" y="515" type="line"/>
      <point x="950" y="515" type="line"/>
      <point x="950" y="609" type="line"/>
    </contour>
    <contour>
      <point x="437" y="191" type="line"/>
      <point x="437" y="41" type="line"/>
      <point x="572" y="41" type="line"/>
      <point x="572" y="191" type="line"/>
    </contour>
    <contour>
      <point x="437" y="1047" type="line"/>
      <point x="437" y="896" type="line"/>
      <point x="572" y="896" type="line"/>
      <point x="572" y="1047" type="line"/>
    </contour>
  </outline>
</glyph>
<glyph name="OE" format="1">
  <advance width="2738"/>
  <unicode hex="0152"/>
  <outline>
    <contour>
      <point x="147" y="714" type="curve" smooth="yes"/>
      <point x="147" y="283"/>
      <point x="355" y="-19"/>
      <point x="825" y="-19" type="curve" smooth="yes"/>
      <point x="1112" y="-19"/>
      <point x="1302" y="106"/>
      <point x="1403" y="303" type="curve"/>
      <point x="1403" y="0" type="line"/>
      <point x="2251" y="0" type="line"/>
      <point x="2258" y="69" type="line"/>
      <point x="1496" y="69" type="line"/>
      <point x="1496" y="710" type="line"/>
      <point x="2172" y="710" type="line"/>
      <point x="2172" y="780" type="line"/>
      <point x="1496" y="780" type="line"/>
      <point x="1496" y="1384" type="line"/>
      <point x="2256" y="1384" type="line"/>
      <point x="2259" y="1455" type="line"/>
      <point x="1403" y="1455" type="line"/>
      <point x="1403" y="1131" type="line"/>
      <point x="1300" y="1343"/>
      <point x="1105" y="1474"/>
      <point x="826" y="1474" type="curve" smooth="yes"/>
      <point x="369" y="1474"/>
      <point x="147" y="1163"/>
    </contour>
    <contour>
      <point x="1403" y="714" type="curve" smooth="yes"/>
      <point x="1403" y="328"/>
      <point x="1245" y="50"/>
      <point x="822" y="50" type="curve" smooth="yes"/>
      <point x="400" y="50"/>
      <point x="240" y="328"/>
      <point x="240" y="714" type="curve" smooth="yes"/>
      <point x="240" y="1124"/>
      <point x="417" y="1405"/>
      <point x="825" y="1405" type="curve" smooth="yes"/>
      <point x="1233" y="1405"/>
      <point x="1403" y="1120"/>
    </contour>
  </outline>
</glyph>
<glyph name="florin" format="1">
  <advance width="913"/>
  <unicode hex="0192"/>
  <outline>
    <contour>
      <point x="474" y="1164" type="curve" smooth="yes"/>
      <point x="409" y="819" type="line"/>
      <point x="247" y="819" type="line"/>
      <point x="237" y="762" type="line"/>
      <point x="401" y="762" type="line"/>
      <point x="274" y="152" type="line"/>
      <point x="244" y="2"/>
      <point x="237" y="-142"/>
      <point x="60" y="-142" type="curve" smooth="yes"/>
      <point x="34" y="-142"/>
      <point x="4" y="-139"/>
      <point x="-31" y="-132" type="curve"/>
      <point x="-42" y="-180" type="line"/>
      <point x="8" y="-192"/>
      <point x="51" y="-198"/>
      <point x="90" y="-198" type="curve" smooth="yes"/>
      <point x="241" y="-198"/>
      <point x="316" y="-101"/>
      <point x="366" y="151" type="curve"/>
      <point x="492" y="762" type="line"/>
      <point x="747" y="762" type="line"/>
      <point x="756" y="819" type="line"/>
      <point x="505" y="819" type="line"/>
      <point x="566" y="1156" type="line" smooth="yes"/>
      <point x="596" y="1319"/>
      <point x="649" y="1391"/>
      <point x="748" y="1391" type="curve" smooth="yes"/>
      <point x="834" y="1391"/>
      <point x="884" y="1343"/>
      <point x="884" y="1225" type="curve"/>
      <point x="951" y="1225" type="line"/>
      <point x="951" y="1398"/>
      <point x="860" y="1458"/>
      <point x="747" y="1458" type="curve" smooth="yes"/>
      <point x="595" y="1458"/>
      <point x="513" y="1369"/>
    </contour>
  </outline>
</glyph>
<glyph name="circumflex" format="1">
  <advance width="847"/>
  <unicode hex="02C6"/>
  <outline>
    <contour>
      <point x="423" y="1082" type="move" name="_top"/>
    </contour>
    <contour>
      <point x="179" y="1253" type="line"/>
      <point x="241" y="1253" type="line"/>
      <point x="413" y="1500" type="line"/>
      <point x="585" y="1253" type="line"/>
      <point x="645" y="1253" type="line"/>
      <point x="463" y="1557" type="line"/>
      <point x="363" y="1557" type="line"/>
    </contour>
  </outline>
</glyph>
<glyph name="caron" format="1">
  <advance width="848"/>
  <unicode hex="02C7"/>
  <outline>
    <contour>
      <point x="423" y="1082" type="move" name="_top"/>
    </contour>
    <contour>
      <point x="463" y="1253" type="line"/>
      <point x="645" y="1557" type="line"/>
      <point x="585" y="1557" type="line"/>
      <point x="413" y="1310" type="line"/>
      <point x="241" y="1557" type="line"/>
      <point x="179" y="1557" type="line"/>
      <point x="363" y="1253" type="line"/>
    </contour>
  </outline>
</glyph>
<glyph name="uni0312" format="1">
  <advance width="600"/>
  <unicode hex="0312"/>
  <outline>
    <contour>
      <point x="303" y="1082" type="move" name="_top"/>
    </contour>
    <contour>
      <point x="240" y="1317" type="curve"/>
      <point x="241" y="1290" type="line"/>
      <point x="354" y="1290" type="line"/>
      <point x="354" y="1414"/>
      <point x="359" y="1778"/>
      <point x="359" y="1778" type="curve"/>
      <point x="319" y="1778" type="line"/>
      <point x="319" y="1778"/>
      <point x="240" y="1366"/>
    </contour>
  </outline>
</glyph>
<glyph name="Sigma" format="1">
  <advance width="1340"/>
  <unicode hex="03A3"/>
  <outline>
    <contour>
      <point x="151" y="1556" type="line"/>
      <point x="151" y="1493" type="line"/>
      <point x="754" y="684" type="line"/>
      <point x="127" y="-99" type="line"/>
      <point x="127" y="-160" type="line"/>
      <point x="1182" y="-160" type="line"/>
      <point x="1182" y="-70" type="line"/>
      <point x="240" y="-70" type="line"/>
      <point x="856" y="691" type="line"/>
      <point x="247" y="1478" type="line"/>
      <point x="1145" y="1478" type="line"/>
      <point x="1145" y="1556" type="line"/>
    </contour>
  </outline>
</glyph>
<glyph name="fraction" format="1">
  <advance width="1017"/>
  <unicode hex="2044"/>
  <outline>
    <contour>
      <point x="129" y="-154" type="line"/>
      <point x="182" y="-154" type="line"/>
      <point x="907" y="1560" type="line"/>
      <point x="852" y="1560" type="line"/>
    </contour>
  </outline>
</glyph>
<glyph name="partialdiff" format="1">
  <advance width="1181"/>
  <unicode hex="2202"/>
  <outline>
    <contour>
      <point x="481" y="-19" type="curve" smooth="yes"/>
      <point x="810" y="-19"/>
      <point x="1027" y="380"/>
      <point x="1027" y="906" type="curve" smooth="yes"/>
      <point x="1027" y="1318"/>
      <point x="831" y="1560"/>
      <point x="544" y="1560" type="curve" smooth="yes"/>
      <point x="452" y="1560"/>
      <point x="350" y="1535"/>
      <point x="243" y="1482" type="curve"/>
      <point x="265" y="1429" type="line"/>
      <point x="367" y="1474"/>
      <point x="457" y="1495"/>
      <point x="535" y="1495" type="curve" smooth="yes"/>
      <point x="807" y="1495"/>
      <point x="934" y="1245"/>
      <point x="940" y="917" type="curve"/>
      <point x="472" y="917"/>
      <point x="191" y="537"/>
      <point x="191" y="261" type="curve" smooth="yes"/>
      <point x="191" y="104"/>
      <point x="282" y="-19"/>
    </contour>
    <contour>
      <point x="482" y="35" type="curve" smooth="yes"/>
      <point x="351" y="35"/>
      <point x="291" y="125"/>
      <point x="291" y="246" type="curve" smooth="yes"/>
      <point x="291" y="490"/>
      <point x="537" y="859"/>
      <point x="940" y="859" type="curve"/>
      <point x="937" y="456"/>
      <point x="750" y="35"/>
    </contour>
  </outline>
</glyph>
<glyph name="notequal" format="1">
  <advance width="1158"/>
  <unicode hex="2260"/>
  <outline>
    <contour>
      <point x="277" y="53" type="line"/>
      <point x="453" y="377" type="line"/>
      <point x="1002" y="377" type="line"/>
      <point x="1002" y="449" type="line"/>
      <point x="486" y="449" type="line"/>
      <point x="695" y="831" type="line"/>
      <point x="1002" y="831" type="line"/>
      <point x="998" y="896" type="line"/>
      <point x="725" y="896" type="line"/>
      <point x="895" y="1213" type="line"/>
      <point x="825" y="1214" type="line"/>
      <point x="650" y="896" type="line"/>
      <point x="113" y="896" type="line"/>
      <point x="117" y="829" type="line"/>
      <point x="620" y="829" type="line"/>
      <point x="416" y="449" type="line"/>
      <point x="113" y="449" type="line"/>
      <point x="117" y="377" type="line"/>
      <point x="374" y="377" type="line"/>
      <point x="207" y="53" type="line"/>
    </contour>
  </outline>
</glyph>
<glyph name="greaterequal" format="1">
  <advance width="1249"/>
  <unicode hex="2265"/>
  <outline>
    <contour>
      <point x="218" y="229" type="line"/>
      <point x="218" y="312" type="line"/>
      <point x="1002" y="750" type="line"/>
      <point x="218" y="1212" type="line"/>
      <point x="218" y="1301" type="line"/>
      <point x="1086" y="775" type="line"/>
      <point x="1086" y="723" type="line"/>
    </contour>
    <contour>
      <point x="1140" y="0" type="line"/>
      <point x="173" y="0" type="line"/>
      <point x="173" y="74" type="line"/>
      <point x="1140" y="74" type="line"/>
    </contour>
  </outline>
</glyph>
